<svg xmlns="http://www.w3.org/2000/svg" viewBox="0 0 600 200" width="100%" height="100%">
  <defs>
    <linearGradient id="metalWms" x1="0%" y1="0%" x2="100%" y2="100%">
      <stop offset="0%" stop-color="#06D6A0" />
      <stop offset="100%" stop-color="#118AB2" />
    </linearGradient>
    <linearGradient id="textGrad" x1="0%" y1="0%" x2="100%" y2="0%">
      <stop offset="0%" stop-color="#0F172A" />
      <stop offset="100%" stop-color="#334155" />
    </linearGradient>
  </defs>
  <rect width="100%" height="100%" fill="transparent"/>
  <g transform="translate(40, 40)">
    <path d="M 70 20 A 50 50 0 1 0 70 120" fill="none" stroke="url(#metalWms)" stroke-width="14" stroke-linecap="round"/>
    <line x1="45" y1="45" x2="85" y2="45" stroke="#118AB2" stroke-width="4" stroke-linecap="round"/>
    <line x1="45" y1="65" x2="85" y2="65" stroke="#118AB2" stroke-width="4" stroke-linecap="round"/>
    <line x1="45" y1="85" x2="85" y2="85" stroke="#118AB2" stroke-width="4" stroke-linecap="round"/>
    <rect x="48" y="51" width="12" height="10" rx="1" fill="#06D6A0" />
    <rect x="68" y="51" width="12" height="10" rx="1" fill="#FFD166" />
    <rect x="58" y="71" width="14" height="10" rx="1" fill="#06D6A0" />
  </g>
  <text x="180" y="115" font-family="'Montserrat', 'Segoe UI', sans-serif" font-size="54" font-weight="800" fill="url(#textGrad)" letter-spacing="2">CLEVER</text>
  <line x1="435" y1="73" x2="435" y2="115" stroke="#CBD5E1" stroke-width="3" stroke-linecap="round" />
  <text x="455" y="112" font-family="'Montserrat', 'Segoe UI', sans-serif" font-size="42" font-weight="300" fill="#06D6A0" letter-spacing="4">WMS</text>
  <g transform="translate(575, 75) scale(0.8)">
    <circle cx="10" cy="10" r="9" fill="none" stroke="#06D6A0" stroke-width="1.5"/>
    <path d="M 7 14 L 7 6 L 11 6 C 13 6, 14 7, 14 8.5 C 14 10, 13 11, 11 11 L 9 11 L 9 14 M 9 9 L 11 9 C 11.5 9, 12 8.8, 12 8.5 C 12 8.2, 11.5 8, 11 8 L 9 8 Z M 11 11 L 13.5 14" fill="none" stroke="#06D6A0" stroke-width="1.5" stroke-linejoin="round" stroke-linecap="round"/>
  </g>
</svg>
