<svg xmlns="http://www.w3.org/2000/svg" viewBox="0 0 650 200" width="100%" height="100%">
  <defs>
    <linearGradient id="metalBlue" x1="0%" y1="0%" x2="100%" y2="100%">
      <stop offset="0%" stop-color="#0077B6" />
      <stop offset="50%" stop-color="#00B4D8" />
      <stop offset="100%" stop-color="#90E0EF" />
    </linearGradient>
    <linearGradient id="textGrad" x1="0%" y1="0%" x2="100%" y2="0%">
      <stop offset="0%" stop-color="#0F172A" />
      <stop offset="100%" stop-color="#334155" />
    </linearGradient>
  </defs>
  <rect width="100%" height="100%" fill="transparent"/>
  
  <g transform="translate(40, 40)">
    <path d="M 70 20 A 50 50 0 1 0 70 120" fill="none" stroke="url(#metalBlue)" stroke-width="14" stroke-linecap="round"/>
    
    <line x1="65" y1="70" x2="45" y2="50" stroke="#00B4D8" stroke-width="3" />
    <line x1="65" y1="70" x2="85" y2="50" stroke="#00B4D8" stroke-width="3" />
    <line x1="65" y1="70" x2="50" y2="90" stroke="#00B4D8" stroke-width="3" />
    <line x1="65" y1="70" x2="80" y2="90" stroke="#00B4D8" stroke-width="3" />
    
    <circle cx="45" cy="50" r="5" fill="#0077B6" />
    <circle cx="85" cy="50" r="5" fill="#00B4D8" />
    <circle cx="50" cy="90" r="5" fill="#90E0EF" />
    <circle cx="80" cy="90" r="5" fill="#0077B6" />
    
    <circle cx="65" cy="70" r="9" fill="url(#metalBlue)" stroke="#0F172A" stroke-width="2" />
    
    <circle cx="84" cy="30" r="8" fill="#00F5D4" />
  </g>
  
  <text x="180" y="115" font-family="'Montserrat', 'Segoe UI', sans-serif" font-size="54" font-weight="800" fill="url(#textGrad)" letter-spacing="2">CLEVER</text>
  <text x="425" y="112" font-family="'Montserrat', 'Segoe UI', sans-serif" font-size="38" font-weight="300" fill="#64748B" letter-spacing="2">SISTEMAS</text>
  
  <g transform="translate(615, 75) scale(0.8)">
    <circle cx="10" cy="10" r="9" fill="none" stroke="#64748B" stroke-width="1.5"/>
    <path d="M 7 14 L 7 6 L 11 6 C 13 6, 14 7, 14 8.5 C 14 10, 13 11, 11 11 L 9 11 L 9 14 M 9 9 L 11 9 C 11.5 9, 12 8.8, 12 8.5 C 12 8.2, 11.5 8, 11 8 L 9 8 Z M 11 11 L 13.5 14" fill="none" stroke="#64748B" stroke-width="1.5" stroke-linejoin="round" stroke-linecap="round"/>
  </g>
</svg>
